{
    "accessors" : [
        {
            "bufferView" : 0, 
            "componentType" : 5123, 
            "count" : 576, 
            "max" : [
                383
            ], 
            "min" : [
                0
            ], 
            "type" : "SCALAR"
        }, 
        {
            "bufferView" : 1, 
            "componentType" : 5126, 
            "count" : 384, 
            "max" : [
                2.916825532913208, 
                0.2511945068836212, 
                3.5311942100524902
            ], 
            "min" : [
                -2.9184858798980713, 
                -0.3729056119918823, 
                -3.4318795204162598
            ], 
            "type" : "VEC3"
        }, 
        {
            "bufferView" : 2, 
            "componentType" : 5126, 
            "count" : 384, 
            "max" : [
                0.4054829478263855, 
                0.9999953508377075, 
                0.3198812007904053
            ], 
            "min" : [
                -0.45211997628211975, 
                -0.9979939460754395, 
                -0.4045308530330658
            ], 
            "type" : "VEC3"
        }, 
        {
            "bufferView" : 3, 
            "componentType" : 5126, 
            "count" : 384, 
            "max" : [
                0.9999299049377441, 
                0.3401150703430176, 
                0.9998477101325989, 
                1.0
            ], 
            "min" : [
                -0.9998636245727539, 
                -0.44766315817832947, 
                -0.9999499320983887, 
                1.0
            ], 
            "type" : "VEC4"
        }, 
        {
            "bufferView" : 4, 
            "componentType" : 5126, 
            "count" : 384, 
            "max" : [
                0.3698575794696808, 
                0.16048258543014526
            ], 
            "min" : [
                0.05826738476753235, 
                0.042642414569854736
            ], 
            "type" : "VEC2"
        }
    ], 
    "asset" : {
        "generator" : "Khronos Blender glTF 2.0 exporter", 
        "version" : "2.0"
    }, 
    "bufferViews" : [
        {
            "buffer" : 0, 
            "byteLength" : 1152, 
            "byteOffset" : 0, 
            "target" : 34963
        }, 
        {
            "buffer" : 0, 
            "byteLength" : 4608, 
            "byteOffset" : 1152, 
            "target" : 34962
        }, 
        {
            "buffer" : 0, 
            "byteLength" : 4608, 
            "byteOffset" : 5760, 
            "target" : 34962
        }, 
        {
            "buffer" : 0, 
            "byteLength" : 6144, 
            "byteOffset" : 10368, 
            "target" : 34962
        }, 
        {
            "buffer" : 0, 
            "byteLength" : 3072, 
            "byteOffset" : 16512, 
            "target" : 34962
        }
    ], 
    "buffers" : [
        {
            "byteLength" : 19584, 
            "uri" : "data:application/octet-stream;base64,"
        }
    ], 
    "meshes" : [
        {
            "name" : "Cube", 
            "primitives" : [
                {
                    "attributes" : {
                        "NORMAL" : 2, 
                        "POSITION" : 1, 
                        "TANGENT" : 3, 
                        "TEXCOORD_0" : 4
                    }, 
                    "indices" : 0
                }
            ]
        }
    ], 
    "nodes" : [
        {
            "mesh" : 0, 
            "name" : "Cube"
        }
    ], 
    "scene" : 0, 
    "scenes" : [
        {
            "name" : "Scene", 
            "nodes" : [
                0
            ]
        }
    ]
}
